<?xml version="1.0" encoding="UTF-8" standalone="no"?>
<svg
   xmlns:dc="http://purl.org/dc/elements/1.1/"
   xmlns:cc="http://creativecommons.org/ns#"
   xmlns:rdf="http://www.w3.org/1999/02/22-rdf-syntax-ns#"
   xmlns:svg="http://www.w3.org/2000/svg"
   xmlns="http://www.w3.org/2000/svg"
   xmlns:xlink="http://www.w3.org/1999/xlink"
   xmlns:sodipodi="http://sodipodi.sourceforge.net/DTD/sodipodi-0.dtd"
   xmlns:inkscape="http://www.inkscape.org/namespaces/inkscape"
   version="1.1"
   id="svg60"
   width="327.67999"
   height="327.67999"
   viewBox="0 0 327.67999 327.67999"
   sodipodi:docname="logo1.svg"
   inkscape:version="1.0.1 (3bc2e813f5, 2020-09-07)">
  <metadata
     id="metadata66">
    <rdf:RDF>
      <cc:Work
         rdf:about="">
        <dc:format>image/svg+xml</dc:format>
        <dc:type
           rdf:resource="http://purl.org/dc/dcmitype/StillImage" />
      </cc:Work>
    </rdf:RDF>
  </metadata>
  <defs
     id="defs64">
    <linearGradient
       inkscape:collect="always"
       id="linearGradient160">
      <stop
         style="stop-color:#ff9900;stop-opacity:1"
         offset="0"
         id="stop156" />
      <stop
         style="stop-color:#ace8fc;stop-opacity:1"
         offset="1"
         id="stop158" />
    </linearGradient>
    <linearGradient
       inkscape:collect="always"
       xlink:href="#linearGradient160"
       id="linearGradient162"
       x1="57.589985"
       y1="264.60001"
       x2="110.10649"
       y2="200.89944"
       gradientUnits="userSpaceOnUse" />
  </defs>
  <sodipodi:namedview
     pagecolor="#ffffff"
     bordercolor="#666666"
     borderopacity="1"
     objecttolerance="10"
     gridtolerance="10"
     guidetolerance="10"
     inkscape:pageopacity="0"
     inkscape:pageshadow="2"
     inkscape:window-width="1914"
     inkscape:window-height="1150"
     id="namedview62"
     showgrid="false"
     inkscape:zoom="1.0282483"
     inkscape:cx="169.97329"
     inkscape:cy="75.92434"
     inkscape:window-x="0"
     inkscape:window-y="22"
     inkscape:window-maximized="1"
     inkscape:current-layer="g68" />
  <g
     inkscape:groupmode="layer"
     inkscape:label="Image"
     id="g68">
    <path
       style="fill:#000000;stroke-width:0.32"
       d="m 20.863614,317.17674 c -2.889121,-0.51784 -5.478414,-2.49028 -7.195511,-5.48132 -0.914281,-1.59261 -1.035188,-2.42833 -1.819752,-12.57836 -0.420309,-5.4376 -0.539064,-10.35529 -0.637524,-26.4 -0.0738,-12.02578 -0.0593,-12.35159 0.607049,-13.64293 0.655138,-1.26961 4.915134,-5.87707 5.433865,-5.87707 0.238274,0 2.109752,-1.5303 2.793599,-2.28432 0.176,-0.19406 2.048,-2.05322 4.16,-4.13147 5.76541,-5.67327 8.331168,-8.38818 8.858435,-9.37339 0.330583,-0.6177 3.028784,-4.0471 3.438893,-4.37082 0.356758,-0.2816 4.023837,-4.91387 4.939817,-6.24 1.589312,-2.30095 3.545162,-4.84026 4.459107,-5.78931 0.492941,-0.51188 1.879584,-2.08269 3.081431,-3.49069 1.201846,-1.408 2.814531,-3.17697 3.583744,-3.93104 5.888057,-5.77216 8.390578,-8.38028 9.63702,-10.04369 0.307146,-0.4099 1.279146,-1.6548 2.16,-2.76646 0.880854,-1.11166 1.601552,-2.15209 1.601552,-2.31208 0,-0.15998 1.218835,-1.77044 2.708525,-3.5788 1.489689,-1.80836 2.927443,-3.57593 3.195008,-3.92793 0.267568,-0.352 0.935052,-1.216 1.483299,-1.92 1.960182,-2.51704 2.266502,-3.46434 2.266502,-7.0092 0,-5.19882 -1.59367,-8.79562 -5.170905,-11.67037 -1.687383,-1.35602 -7.452061,-4.06913 -12.962429,-6.10069 -6.370665,-2.34874 -9.5084,-4.5282 -11.588287,-8.04917 -0.302336,-0.51181 -0.660228,-0.93056 -0.795316,-0.93056 -0.384467,0 -1.905548,-3.18922 -2.365648,-4.96 -0.228646,-0.88 -0.669308,-2.392 -0.979244,-3.36 -0.397383,-1.24111 -0.59608,-3.10436 -0.673952,-6.31981 -0.110266,-4.55302 -0.108935,-4.56294 0.895232,-6.66698 1.420102,-2.97555 6.706393,-8.25873 11.392313,-11.38559 3.885235,-2.59258 6.919021,-3.68124 11.16847,-4.00777 1.795037,-0.13794 2.219798,-0.0237 5.928662,1.59385 4.594531,2.00387 8.499181,4.5176 9.687088,6.23634 0.792835,1.14712 1.446579,2.87575 2.628381,6.94996 1.363865,4.70184 4.607158,9.47036 6.750841,9.92555 0.501302,0.10645 1.384346,0.40075 1.962317,0.65399 1.304377,0.57154 1.636256,0.57177 4.048697,0.003 1.067245,-0.25169 2.444445,-0.54025 3.060448,-0.64123 0.64843,-0.1063 1.632749,-0.65466 2.337799,-1.30237 0.6698,-0.61532 1.31997,-1.11876 1.44482,-1.11876 0.12485,0 1.01684,-1.25405 1.98219,-2.78679 1.75519,-2.78679 1.75519,-2.78679 1.75234,-5.84 -0.003,-2.87055 -0.0741,-3.19934 -1.19402,-5.49578 -0.65515,-1.34341 -1.6904,-3.07141 -2.30057,-3.84 -0.61017,-0.76858 -1.45551,-1.82943 -1.87854,-2.35743 -0.42302,-0.528 -0.955499,-1.32 -1.183289,-1.76 -0.22779,-0.44 -0.59747,-0.90862 -0.82151,-1.04139 -0.22404,-0.13276 -0.663649,-0.92476 -0.976903,-1.76 -0.313254,-0.83523 -0.845718,-1.90069 -1.183248,-2.36769 -1.314624,-1.81883 -1.637133,-8.11955 -0.529821,-10.35093 0.732679,-1.47644 1.963491,-3.30508 2.692302,-4 0.27688,-0.264 1.1863,-1.1885 2.020929,-2.05444 4.14064,-4.295957 7.05601,-6.961179 8.79694,-8.042136 0.83569,-0.51888 1.51969,-1.047721 1.52,-1.175203 9.6e-4,-0.390227 1.83905,-1.208218 2.71496,-1.208218 0.4544,0 1.36155,-0.236502 2.01589,-0.525561 1.31336,-0.580176 5.05845,-1.033651 10.52749,-1.274727 3.57775,-0.157708 3.57775,-0.157708 7.01366,1.495408 3.25705,1.56706 4.67237,2.646714 6.35152,4.845136 4.90181,6.417711 5.57131,7.432921 7.97935,12.099741 1.89885,3.68 1.89885,3.68 1.8836,6.82946 -0.01,2.03409 -0.1853,3.56401 -0.49539,4.32001 -0.26407,0.6438 -0.86392,2.12316 -1.33301,3.28747 -0.46909,1.16431 -1.52893,3.22771 -2.35519,4.58533 -0.82627,1.35763 -1.93577,3.23712 -2.46556,4.17665 -0.52979,0.93953 -1.3562,2.01733 -1.83646,2.39511 -0.48027,0.37778 -1.37113,1.43367 -1.97969,2.34642 -1.15313,1.72955 -2.58793,3.46904 -4.91091,5.95381 -0.75367,0.80616 -2.08448,2.54575 -2.95735,3.86575 -0.87287,1.32 -1.88021,2.832 -2.23853,3.36 -1.70642,2.51447 -2.14638,3.31506 -2.4681,4.49107 -0.51385,1.87833 -1.03304,3.3077 -1.89464,5.21609 -1.15388,2.55576 -1.29613,4.25442 -0.49361,5.8943 0.36566,0.7472 0.98688,2.20831 1.38049,3.24692 0.88463,2.33424 3.07578,4.67396 4.37048,4.6668 2.66828,-0.0147 5.53727,-2.23136 7.59969,-5.87159 0.78754,-1.39003 1.43189,-2.70455 1.43189,-2.92116 0,-0.21661 0.576,-1.62299 1.28,-3.12529 0.704,-1.50229 1.28,-2.92344 1.28,-3.15811 0,-0.23466 0.30725,-1.22144 0.68279,-2.19284 2.2707,-5.8736 3.04641,-7.30471 5.4572,-10.06797 4.25592,-4.87818 5.53482,-5.90994 8.92088,-7.1969 2.09592,-0.79661 3.91157,-0.83679 6.32987,-0.14008 4.42828,1.27578 7.3608,3.51812 8.94371,6.83876 0.76672,1.60844 0.84898,2.17334 0.95529,6.56 0.11632,4.8 0.11632,4.8 -1.80402,8.6914 -1.05619,2.14027 -2.11093,4.01227 -2.34387,4.16 -0.23294,0.14773 -1.04842,1.09111 -1.81219,2.0964 -0.76377,1.00529 -1.62739,1.90402 -1.91917,1.99718 -0.70181,0.22407 -5.81417,5.26709 -6.53743,6.44876 -0.31181,0.50944 -1.06781,1.62653 -1.68,2.48242 -1.42061,1.98614 -1.50883,3.63716 -0.27347,5.11764 1.70461,2.04285 3.09174,2.2801 5.25776,0.89926 0.78245,-0.49882 2.21464,-1.80952 3.18264,-2.91266 3.10072,-3.53362 7.79592,-8.16055 9.28,-9.1451 0.792,-0.52542 1.48659,-1.05906 1.54353,-1.18587 0.0569,-0.12682 1.13694,-0.82155 2.4,-1.54386 1.26306,-0.72232 2.87247,-1.66076 3.57647,-2.08544 0.704,-0.42467 2.288,-1.07566 3.52,-1.44663 1.232,-0.37097 2.744,-0.85492 3.36,-1.07545 4.21298,-1.50823 5.40491,-1.77818 7.8511,-1.77812 5.45631,1.4e-4 11.7289,3.58509 14.31696,8.18252 0.48844,0.86765 1.20609,2.08048 1.59479,2.69517 0.57909,0.91576 0.72829,1.69987 0.82607,4.34135 0.10209,2.75785 0.0176,3.47501 -0.58447,4.96239 -1.70188,4.20427 -2.99466,6.98202 -4.01117,8.61864 -0.60122,0.968 -1.38859,2.3 -1.74971,2.96 -0.36112,0.66 -0.79091,1.2 -0.9551,1.2 -0.16418,0 -0.57884,0.63372 -0.92146,1.40827 -0.35433,0.80101 -0.91288,1.50029 -1.29532,1.62167 -0.3698,0.11737 -0.82164,0.49231 -1.00407,0.83321 -0.46477,0.86841 -3.91104,2.55721 -6.38762,3.13016 -1.52304,0.35236 -4.95049,0.53014 -12.8,0.66395 -12.18638,0.20774 -12.09978,0.18935 -13.66083,2.90079 -0.4566,0.79307 -1.29362,2.01795 -1.86005,2.72195 -1.42568,1.77187 -3.03912,5.07006 -3.03912,6.21252 0,1.42231 1.18101,3.1767 2.51859,3.74137 1.50534,0.63549 5.24631,0.72555 7.08141,0.17048 0.792,-0.23956 3.312,-1.31956 5.6,-2.4 4.16,-1.96444 4.16,-1.96444 8.69821,-2.06769 4.53821,-0.10325 4.53821,-0.10325 7.17689,1.04024 2.73368,1.18466 3.9105,2.20603 5.09615,4.42301 0.35297,0.66 0.76909,1.2 0.92471,1.2 0.39373,0 2.3009,3.44105 2.66035,4.8 0.44598,1.68608 1.22612,7.20235 1.40851,9.95935 0.13767,2.08118 0.0344,2.80946 -0.70339,4.96 -1.00873,2.94031 -2.25206,5.40654 -3.84259,7.62204 -2.53017,3.52438 -4.96575,6.05997 -6.37884,6.64079 -0.528,0.21703 -1.44809,0.72382 -2.04465,1.12621 -0.61388,0.41407 -1.58612,0.73771 -2.24,0.74566 -0.63544,0.008 -1.73135,0.22156 -2.43535,0.47518 -1.9709,0.71005 -8.78046,0.62228 -11.06517,-0.14262 -3.40188,-1.13891 -7.43641,-3.6452 -10.85483,-6.74312 -0.968,-0.87724 -1.85437,-1.5969 -1.96972,-1.59924 -0.11535,-0.002 -0.81116,-0.50673 -1.54625,-1.12089 -0.73509,-0.61415 -1.93672,-1.41062 -2.67028,-1.76995 -0.73356,-0.35932 -2.41374,-1.23611 -3.73374,-1.94842 -2.23837,-1.20788 -2.61926,-1.30694 -5.65546,-1.4709 -3.04904,-0.16465 -3.36126,-0.12307 -4.92415,0.65575 -0.96846,0.4826 -1.99045,1.30504 -2.43544,1.95991 -0.42171,0.6206 -1.30184,1.42257 -1.95585,1.78215 -1.69758,0.93336 -3.27951,2.1164 -4.21786,3.15431 -1.12054,1.23945 -6.76506,6.26649 -7.45362,6.63826 -0.30931,0.167 -1.38931,1.46173 -2.4,2.87717 -4.30086,6.02321 -8.49531,10.72057 -12.44033,13.93191 -1.07949,0.87872 -2.42011,2.30358 -2.97917,3.16635 -0.55905,0.86276 -1.61983,2.06347 -2.35729,2.66823 -0.73746,0.60476 -1.77283,1.70284 -2.30083,2.44018 -0.528,0.73734 -1.608,2.10669 -2.4,3.04301 -0.792,0.93632 -2.304,2.72289 -3.36,3.97016 -1.056,1.24727 -2.909129,3.23768 -4.11805,4.42314 -1.208928,1.18546 -2.759488,2.87538 -3.445693,3.75538 -1.291152,1.6558 -2.741113,3.43298 -5.650659,6.92588 -1.611891,1.93507 -4.492761,4.9925 -11.817295,12.54153 -5.296243,5.45857 -4.339386,5.21606 -21.528304,5.4563 -7.831999,0.10946 -18.343999,0.26408 -23.359999,0.34359 -5.235332,0.083 -9.861889,0.0116 -10.861726,-0.16762 z m 18.179857,-12.45968 c 0.704112,0 1.685581,-0.16593 2.181037,-0.36874 0.495459,-0.2028 1.620832,-0.47313 2.500832,-0.60072 0.88,-0.1276 2.032,-0.38461 2.56,-0.57114 1.296403,-0.458 6.618505,-1.34696 13.759999,-2.29837 1.232,-0.16412 2.863683,-0.48239 3.625958,-0.70725 1.293885,-0.38167 1.376272,-0.47277 1.240125,-1.37131 -0.08021,-0.52936 -0.297737,-1.39447 -0.483395,-1.92247 -0.319341,-0.90817 -0.65367,-2.41496 -1.349037,-6.08 -0.166963,-0.88 -0.606278,-2.392 -0.976256,-3.36 -0.369977,-0.968 -0.791213,-2.23745 -0.93608,-2.82101 -0.678438,-2.73291 -6.040419,-8.60138 -10.754892,-11.77079 -1.496461,-1.00603 -2.893091,-2.06447 -3.103629,-2.35209 -0.444323,-0.60701 -4.267661,-3.15932 -6.158854,-4.1114 -1.490739,-0.75048 -3.699539,-1.25892 -7.343939,-1.69046 -1.408,-0.16673 -2.857574,-0.43001 -3.221274,-0.58508 -1.212555,-0.51697 -5.977837,-0.74085 -7.498726,-0.35229 -0.792,0.20234 -2.509876,0.57089 -3.817501,0.81901 -1.307626,0.24811 -2.501937,0.57555 -2.654025,0.72764 -0.409805,0.4098 -0.07125,11.38195 0.510253,16.53647 0.505481,4.48069 1.120617,8.86601 1.263721,9.00911 0.04179,0.0418 1.06485,0.23397 2.273456,0.42704 3.053306,0.48777 5.368182,1.36042 7.319896,2.75944 4.359042,3.1246 5.96645,5.01898 7.300952,8.60441 0.93031,2.49947 1.158688,2.78777 1.895811,2.39328 0.321949,-0.17231 1.161456,-0.31328 1.865568,-0.31328 z m 43.174799,-14.4 c 1.45911,-1.496 3.086028,-3.332 3.615372,-4.08 0.529344,-0.748 1.072381,-1.36 1.206752,-1.36 0.134368,0 1.02745,-0.95121 1.984624,-2.1138 0.957178,-1.16259 1.997555,-2.42259 2.311952,-2.8 0.314397,-0.37741 1.898397,-2.11179 3.52,-3.85418 1.621603,-1.74238 3.152976,-3.47038 3.403053,-3.84 0.250078,-0.36961 1.762077,-2.04473 3.359997,-3.72249 1.59792,-1.67775 3.55332,-3.81689 4.34532,-4.75364 0.792,-0.93675 1.88731,-2.15604 2.43402,-2.70953 0.5467,-0.5535 1.40288,-1.58236 1.90261,-2.28636 0.49972,-0.704 2.35642,-2.79546 4.12598,-4.6477 1.76956,-1.85224 5.37739,-5.80471 8.01739,-8.78326 2.64,-2.97856 5.952,-6.65522 7.36,-8.17037 1.408,-1.51514 3.55567,-4.25867 4.77261,-6.09673 2.90812,-4.39241 6.1842,-7.45381 8.51038,-7.95269 2.17818,-0.46713 6.26572,-0.42314 9.59701,0.10327 2.9128,0.4603 6.00337,1.85293 9.15821,4.12675 0.90102,0.64941 1.72248,1.18073 1.82546,1.18073 0.10298,0 0.53608,0.324 0.96245,0.72 0.42637,0.396 1.33291,1.2381 2.01455,1.87133 2.23828,2.07935 6.01437,5.23174 7.36417,6.14783 3.24879,2.20492 9.32184,1.50185 11.72802,-1.35773 1.92331,-2.28572 2.419,-7.12203 0.9425,-9.19559 -1.27418,-1.78941 -2.37564,-2.07126 -7.01755,-1.79569 -8.44387,0.50129 -9.59528,0.25103 -14.70067,-3.19523 -2.97614,-2.00896 -3.59845,-2.58983 -4.70854,-4.39492 -0.77464,-1.25962 -1.50879,-3.02659 -1.86138,-4.48 -0.62612,-2.58091 -0.77208,-7.38755 -0.28179,-9.28 0.9514,-3.67233 1.42758,-4.79105 3.0661,-7.20335 1.95171,-2.87337 2.50979,-3.25035 6.22846,-4.2073 0.968,-0.2491 2.624,-0.67574 3.68,-0.94808 1.056,-0.27234 4.17663,-0.6136 6.93472,-0.75836 4.8207,-0.25301 5.93482,-0.44998 8.74528,-1.5461 2.61035,-1.01806 5.84209,-4.10835 7.52884,-7.19931 0.96797,-1.77378 2.29353,-5.61375 2.45008,-7.0975 0.32931,-3.12132 -2.52966,-5.7436 -6.68019,-6.12712 -1.64934,-0.1524 -2.72137,-9.6e-4 -5.85873,0.82707 -6.40025,1.68941 -6.18085,1.53613 -14.15235,9.887 -3.49828,3.66476 -3.98291,4.05069 -6.7786,5.39807 -2.78173,1.34065 -3.14253,1.43566 -4.73912,1.24801 -2.05403,-0.24141 -5.26002,-1.77854 -6.07141,-2.91096 -0.31818,-0.44408 -1.20609,-1.48581 -1.97313,-2.31495 -1.78957,-1.93448 -1.97704,-2.47783 -2.0044,-5.80947 -0.0184,-2.24155 0.12848,-3.13219 0.78491,-4.75893 0.44415,-1.10071 1.11699,-2.39671 1.4952,-2.88 0.37821,-0.48329 1.28868,-1.69439 2.02328,-2.69132 2.36834,-3.21411 4.10611,-5.21754 4.89007,-5.63762 0.42105,-0.22561 0.76556,-0.5639 0.76556,-0.75174 0,-0.18783 0.70767,-1.03445 1.57261,-1.88138 0.86493,-0.84692 2.14611,-2.42245 2.84705,-3.50117 1.16,-1.78521 1.2946,-2.21604 1.49895,-4.79795 0.35363,-4.46802 -0.80944,-7.5199 -3.2553,-8.54184 -0.93343,-0.39001 -1.27112,-0.38072 -2.65876,0.0731 -1.57509,0.51518 -2.35519,1.17248 -5.84721,4.92676 -1.49907,1.61165 -4.07734,5.99993 -4.07734,6.93973 0,0.51247 -2.26911,6.46721 -3.88097,10.18467 -1.42502,3.28656 -4.36693,8.09398 -5.09443,8.32488 -0.34685,0.11009 -1.07637,0.7548 -1.62114,1.4327 -0.54477,0.67789 -1.44341,1.41705 -1.99698,1.64256 -0.55357,0.22552 -1.17477,0.63274 -1.38044,0.90494 -0.29744,0.39363 -1.27074,0.51789 -4.75622,0.60718 -4.75681,0.12187 -4.99668,0.0693 -9.02642,-1.97714 -2.26494,-1.15023 -4.28742,-3.56904 -5.70921,-6.82802 -0.448,-1.02691 -1.18362,-2.58316 -1.6347,-3.45833 -0.74842,-1.45207 -0.80481,-1.82988 -0.64476,-4.32 0.0965,-1.50083 0.32682,-3.16077 0.51191,-3.68877 0.18509,-0.528 0.56483,-1.824 0.84388,-2.88 0.27904,-1.056 0.78285,-2.424 1.11957,-3.04 0.33671,-0.616 1.17531,-2.27408 1.86355,-3.68463 0.68824,-1.41055 1.88263,-3.35455 2.65419,-4.32 0.77156,-0.96545 2.0406,-2.61937 2.82009,-3.67537 0.77949,-1.056 1.56909,-2.064 1.75466,-2.24 0.18558,-0.176 1.08474,-1.328 1.99815,-2.56 0.91339,-1.232 1.86846,-2.456 2.12236,-2.72 1.36982,-1.4243 4.09159,-3.84 4.32652,-3.84 0.42985,0 3.32915,-5.01438 4.62557,-8 1.69632,-3.9066 2.14746,-5.6167 2.17143,-8.23119 0.0226,-2.46061 -0.21367,-3.4418 -1.66852,-6.93016 -0.50496,-1.21074 -0.91809,-2.36013 -0.91809,-2.55421 0,-0.19408 -0.756,-1.09103 -1.68,-1.99322 -0.924,-0.90218 -2.08969,-2.05679 -2.59042,-2.565784 -4.08076,-4.148109 -3.88468,-4.030288 -6.39199,-3.840839 -6.8605,0.518378 -7.83315,0.698288 -11.2492,2.080771 -1.28971,0.521949 -3.82388,2.367462 -5.29646,3.857162 -0.44443,0.4496 -1.23643,1.20486 -1.76,1.67835 -0.52356,0.4735 -1.52793,1.53245 -2.23193,2.35324 -0.704,0.82078 -1.964,2.22791 -2.8,3.12694 -1.41709,1.52394 -1.52,1.7496 -1.52,3.33302 0,1.39923 0.28642,2.27458 1.62603,4.96936 0.89431,1.79903 1.73918,3.34422 1.87747,3.43376 1.06996,0.69274 6.0965,8.44129 6.0965,9.39792 0,0.30616 0.252,1.01751 0.56,1.58077 0.45837,0.83826 0.55947,1.83708 0.5571,5.50411 -0.003,4.48 -0.003,4.48 -1.76,7.45686 -0.96641,1.63728 -2.09632,3.55331 -2.51092,4.25784 -0.4146,0.70453 -1.31,1.64904 -1.98979,2.0989 -0.67978,0.44986 -1.32597,1.10151 -1.43598,1.44811 -0.27266,0.85906 -2.93589,2.49829 -4.05895,2.49829 -0.502289,0 -1.326889,0.2139 -1.832459,0.47534 -2.385915,1.2338 -3.738456,1.46055 -7.911464,1.32633 -5.008444,-0.16109 -6.578195,-0.49755 -9.223683,-1.97699 -2.393862,-1.33873 -3.523516,-2.55798 -3.996115,-4.31307 -0.186502,-0.69262 -0.766176,-2.16207 -1.288163,-3.26546 -0.858918,-1.81558 -0.949097,-2.3163 -0.949325,-5.2711 -2.49e-4,-3.20807 -0.35415,-4.78287 -1.193523,-5.31096 -0.223709,-0.14075 -0.644124,-0.71495 -0.934256,-1.276 -0.290134,-0.56106 -0.914368,-1.3819 -1.387184,-1.8241 -0.472819,-0.4422 -0.919433,-0.96648 -0.99248,-1.16508 -0.07305,-0.19859 -1.352416,-0.97209 -2.843046,-1.71888 -2.388198,-1.19647 -2.825469,-1.31822 -3.68,-1.02464 -0.533369,0.18324 -1.617763,0.43416 -2.409763,0.5576 -1.708694,0.26632 -4.433929,1.5746 -4.694502,2.25365 -0.101437,0.26434 -0.764423,0.77651 -1.473303,1.13815 -1.515862,0.77333 -4.945295,3.89533 -7.672195,6.9844 -0.839827,0.95137 -0.879999,1.14897 -0.879999,4.32878 0,1.83255 0.12536,3.66269 0.278579,4.06697 0.153219,0.40428 0.524019,1.59906 0.824,2.65506 0.57351,2.01889 0.937305,2.79334 2.700454,5.74881 1.706349,2.86027 4.616992,4.76243 9.316966,6.08884 0.792,0.22352 2.52,0.92211 3.84,1.55244 1.32,0.63032 3.712605,1.71859 5.316902,2.41837 3.495507,1.52471 4.872989,2.42496 6.817018,4.45523 3.08088,3.21756 4.257542,5.51186 5.198524,10.1363 0.179066,0.88 0.474176,2.12368 0.655808,2.76372 0.181632,0.64005 0.237219,1.72005 0.123527,2.4 -0.11369,0.67996 -0.336884,2.19242 -0.495984,3.36102 -0.283792,2.08449 -1.502912,5.02029 -2.534205,6.10271 -0.580435,0.60921 -1.096086,1.26378 -2.84777,3.61493 -0.656601,0.8813 -1.48182,1.91076 -1.83382,2.28768 -0.352,0.37692 -1,1.21839 -1.44,1.86994 -0.44,0.65156 -1.048048,1.45415 -1.351216,1.78354 -0.771341,0.83806 -3.735219,4.89764 -5.181091,7.09646 -0.665459,1.012 -1.313853,1.84 -1.440877,1.84 -0.127024,0 -1.1828,0.972 -2.34617,2.16 -3.871497,3.95346 -4.318083,4.38901 -6.316047,6.16 -1.092061,0.968 -2.680723,2.696 -3.530355,3.84 -0.849636,1.144 -2.20241,2.8 -3.006164,3.68 -2.171939,2.37797 -3.6851,4.30556 -4.249708,5.41364 -0.276423,0.5425 -1.131639,1.66419 -1.900477,2.49265 -0.768842,0.82846 -1.402278,1.62046 -1.407635,1.76 -0.0053,0.13954 -0.878157,1.18971 -1.939555,2.33371 -1.061399,1.144 -2.268938,2.73539 -2.683424,3.53641 -0.41449,0.80103 -1.12569,1.62594 -1.580448,1.83314 -0.454759,0.2072 -0.826832,0.52119 -0.826832,0.69776 0,0.17656 -1.62,1.90975 -3.6,3.85152 -1.98,1.94178 -3.744,3.67617 -3.92,3.85422 -2.238695,2.26469 -3.04,3.16631 -3.04,3.42057 0,0.16729 -0.506639,0.66464 -1.125864,1.10523 -1.125864,0.80107 -1.125864,0.80107 3.328686,1.0037 2.450002,0.11145 4.79264,0.3514 5.205863,0.53322 0.413222,0.18181 1.831315,0.46513 3.151315,0.62959 3.201197,0.39884 6.384892,1.09278 7.327193,1.59709 0.702471,0.37595 0.843955,0.32006 1.686275,-0.66604 0.505706,-0.59202 1.867616,-2.37241 3.026464,-3.95641 1.158845,-1.584 2.205146,-2.952 2.325107,-3.04 0.119962,-0.088 1.026986,-1.24 2.015607,-2.56 0.988621,-1.32 2.320531,-2.976 2.959795,-3.68 0.639267,-0.704 1.985184,-2.2055 2.990931,-3.33668 1.005744,-1.13118 2.296627,-2.53998 2.868627,-3.13067 0.572,-0.59069 1.04,-1.21923 1.04,-1.39675 0,-0.17753 0.954333,-1.31678 2.120739,-2.53166 1.166407,-1.21489 2.366986,-2.61285 2.667955,-3.10656 0.89056,-1.46091 8.234813,-9.50968 13.691306,-15.00469 1.099999,-1.10777 1.999999,-2.15325 1.999999,-2.32328 0,-0.17003 0.828,-1.17438 1.84,-2.23187 2.522794,-2.63621 4.31728,-4.77856 7.008154,-8.3667 2.913388,-3.88485 3.128393,-4.1129 4.10992,-4.35924 1.785235,-0.44807 3.681929,1.21484 3.681929,3.2281 0,1.3491 -1.608822,4.06554 -3.564227,6.01807 -0.591677,0.59081 -1.723776,1.90504 -2.515776,2.92052 -1.312105,1.68234 -2.037693,2.52248 -5.131254,5.94141 -0.557376,0.616 -1.213283,1.5058 -1.457568,1.97732 -0.244288,0.47153 -0.733738,0.94924 -1.087667,1.06157 -0.35393,0.11233 -0.643511,0.32858 -0.643511,0.48055 0,0.15198 -1.692,2.0068 -3.76,4.12183 -3.356355,3.43269 -6.915497,7.36817 -8.717001,9.63873 -1.048675,1.32172 -3.89735,4.61715 -4.287577,4.96 -0.200323,0.176 -0.637856,0.752 -0.972301,1.28 -0.334442,0.528 -1.289779,1.68 -2.122973,2.56 -2.700166,2.85186 -3.500147,3.77036 -3.500147,4.0187 0,0.13407 -0.805641,1.08225 -1.790317,2.10705 -0.984672,1.02481 -1.996371,2.26175 -2.248217,2.74877 -0.251847,0.48702 -0.573024,0.88548 -0.713731,0.88548 -0.140704,0 -0.821008,0.803 -1.511783,1.78445 -0.690774,0.98145 -1.724172,2.29782 -2.296441,2.92528 -0.572272,0.62746 -1.479392,1.94846 -2.015824,2.93555 -0.904394,1.66419 -0.934224,1.818 -0.410138,2.11472 0.310858,0.176 1.24096,1.004 2.066893,1.84 0.825933,0.836 1.640406,1.52 1.809939,1.52 0.470291,0 4.406902,3.31108 6.896237,5.80041 2.550473,2.55047 2.391228,2.57128 4.76224,-0.62217 0.694921,-0.93598 3.016505,-3.45598 5.159078,-5.6 2.142573,-2.14403 5.478793,-5.62564 7.413824,-7.7369 1.935033,-2.11127 3.955683,-4.27127 4.490339,-4.8 0.534656,-0.52874 1.345779,-1.46534 1.802499,-2.08134 1.875901,-2.53012 6.766902,-7.88895 12.704764,-13.92 3.465619,-3.52 7.754249,-8.056 9.530309,-10.08 6.39343,-7.28598 10.11997,-10.56 12.01958,-10.56 1.71144,0 3.42317,0.95898 4.25973,2.38645 0.43506,0.74238 0.78662,1.62513 0.78125,1.96167 -0.0157,0.98686 -4.59905,7.15784 -8.34214,11.23189 -1.2633,1.375 -2.89974,3.29199 -3.63653,4.25999 -1.77936,2.33773 -4.72237,5.54843 -6.89154,7.51839 -3.73267,3.38987 -8.276448,8.14075 -11.481599,12.00491 -1.09338,1.31818 -2.521316,3.03266 -3.173191,3.80994 -2.036269,2.42799 -2.777667,3.34884 -3.669721,4.55791 -0.475242,0.64414 -1.367632,1.70509 -1.983095,2.35766 -0.615459,0.65258 -1.798208,1.99756 -2.628332,2.98885 -0.830122,0.99129 -2.165136,2.5355 -2.966698,3.43158 -2.835382,3.16973 -3.686041,4.15807 -5.76054,6.69288 -1.153264,1.40916 -2.582791,3.32173 -3.176724,4.25016 -0.99327,1.55266 -1.062188,1.82196 -0.859308,3.35788 0.121315,0.91841 0.412886,2.31784 0.647936,3.10984 0.235052,0.792 0.65774,2.21254 0.939308,3.15675 0.281568,0.94421 0.511943,2.54021 0.511943,3.54667 0,1.00645 0.08816,1.91808 0.195917,2.02583 0.199548,0.19955 6.137955,-5.40886 10.937014,-10.32925 z m 189.57592,24.9448 c -0.93013,-0.16651 -2.58613,-0.71551 -3.68,-1.22 -1.09387,-0.50449 -2.35552,-1.00433 -2.80366,-1.11076 -0.92298,-0.2192 -4.10269,-3.31178 -5.41667,-5.26824 -0.48017,-0.71496 -1.24215,-1.7386 -1.69329,-2.27474 -1.3946,-1.65739 -1.62753,-2.92528 -1.41392,-7.69638 0.24397,-5.44921 0.79751,-7.29969 3.12667,-10.45257 1.08705,-1.47148 1.69685,-1.94099 3.71618,-2.86122 2.29343,-1.04515 2.59715,-1.10089 5.99901,-1.10089 3.58327,0 3.58327,0 6.44005,1.44717 1.57122,0.79594 3.86477,2.17098 5.09677,3.05564 1.232,0.88467 2.888,1.95132 3.68,2.37035 1.66579,0.88131 2.62503,2.18358 3.55281,4.82328 0.54377,1.54713 0.64124,2.47339 0.55256,5.25102 -0.1155,3.61775 -0.0159,3.32073 -3.06626,9.14582 -1.05856,2.02149 -4.12713,4.87309 -6.0239,5.59799 -1.28211,0.48999 -6.00825,0.66197 -8.06635,0.29353 z m 4.12399,-11.27485 c 0.28207,-0.39047 1.03807,-1.9233 1.68,-3.40629 1.42321,-3.28789 1.51403,-4.92407 0.36715,-6.6141 -0.44,-0.64838 -0.8,-1.35672 -0.8,-1.57409 0,-0.37428 -2.59397,-1.32253 -5.76,-2.10562 -1.58317,-0.39158 -2.06393,-0.40377 -4.08994,-0.10366 -2.75136,0.40756 -4.18473,3.08987 -4.47478,8.37381 -0.16248,2.96 -0.16248,2.96 0.76112,2.96703 1.1089,0.008 3.31235,0.96461 3.92278,1.70226 0.24155,0.29189 0.74555,0.53581 1.12,0.54205 0.37445,0.006 1.04082,0.21713 1.48082,0.46866 0.48321,0.27623 1.68702,0.45783 3.04,0.45861 1.94694,9.6e-4 2.3071,-0.0916 2.75285,-0.70866 z m -42.21953,-27.90587 c -3.99372,-1.9212 -5.34321,-2.88368 -7.83343,-5.58695 -0.49506,-0.53742 -1.02138,-0.97713 -1.16959,-0.97713 -0.14822,0 -0.64769,-0.64535 -1.10993,-1.43411 -0.46225,-0.78876 -1.09838,-1.57216 -1.41363,-1.74088 -0.31526,-0.16871 -0.98716,-0.92736 -1.49312,-1.68588 -0.50597,-0.75852 -1.22354,-1.73913 -1.5946,-2.17913 -1.22133,-1.44821 -3.05354,-4.74514 -3.68384,-6.62879 -0.45498,-1.35971 -0.62153,-2.7566 -0.62731,-5.26138 -0.007,-3.14268 0.068,-3.56938 0.95972,-5.44 1.78131,-3.73686 2.15883,-4.24571 6.07241,-8.18474 0.616,-0.62001 2.632,-1.86479 4.48,-2.76618 3.36,-1.63891 3.36,-1.63891 8.8,-1.63891 5.86784,0 7.23482,0.29177 10.52247,2.24593 1.49266,0.88723 3.98061,3.60645 4.82785,5.27662 0.31177,0.6146 0.75048,1.33345 0.9749,1.59745 0.22442,0.264 0.62904,1.13954 0.89916,1.94563 0.50898,1.51896 0.99037,2.65532 2.81776,6.65145 1.07786,2.35709 1.07786,2.35709 1.07786,8.49213 0,6.13504 0,6.13504 -1.92,9.91331 -1.056,2.07805 -2.14176,3.89748 -2.41281,4.04318 -0.27105,0.1457 -1.0436,0.76941 -1.71678,1.38602 -0.67319,0.61661 -1.60342,1.25263 -2.06719,1.41339 -5.86292,2.03222 -6.02402,2.07371 -8.52322,2.19495 -2.15328,0.10445 -2.38039,0.0411 -5.86668,-1.63598 z m 5.82573,-11.55705 c 2.48792,-0.99822 4.33619,-2.56048 5.44971,-4.60637 0.87645,-1.61032 2.11388,-6.29562 2.10878,-7.98445 -0.004,-1.39004 -2.16761,-7.70411 -3.02469,-8.82781 -0.44707,-0.58613 -0.81285,-1.19236 -0.81285,-1.34718 0,-1.47526 -6.27287,-4.0767 -9.28,-3.84854 -2.82519,0.21437 -6.46801,2.09101 -8.88917,4.57936 -5.09371,5.23507 -5.49856,9.52434 -1.46714,15.54414 0.85597,1.27817 2.00488,2.83691 2.55312,3.46388 0.54824,0.62697 1.41224,1.61397 1.92,2.19334 1.33646,1.52496 2.81504,1.92247 6.47516,1.74081 2.22054,-0.1102 3.6159,-0.36505 4.96708,-0.90718 z m 67.56095,-28.88892 c -1.92518,-0.36413 -5.86949,-2.48549 -7.72818,-4.15642 -2.93832,-2.6415 -5.06703,-4.15362 -6.52444,-4.6346 -0.78506,-0.25909 -3.06811,-0.57276 -5.07345,-0.69706 -3.63853,-0.22553 -6.37853,-1.02515 -7.71393,-2.25119 -0.264,-0.24238 -0.95296,-0.87677 -1.53103,-1.40976 -0.57807,-0.53299 -1.17607,-0.96908 -1.32889,-0.96908 -0.15281,0 -0.83185,-0.8037 -1.50896,-1.786 -2.59178,-3.75995 -2.66038,-3.93236 -2.66324,-6.694 -0.002,-2.22573 0.11191,-2.75037 0.87473,-4.01798 0.48257,-0.80189 1.73996,-2.24189 2.79422,-3.2 1.05425,-0.95811 2.10777,-1.99594 2.34114,-2.3063 0.8464,-1.12558 2.85613,-1.8463 5.57079,-1.99777 1.44295,-0.0805 4.16284,-0.44888 6.0442,-0.81861 3.53422,-0.69453 3.97833,-0.69575 11.54342,-0.0316 3.17512,0.27876 3.64968,0.41482 6.72,1.92661 1.89737,0.93425 3.98469,2.2517 4.90362,3.09501 0.88,0.80759 1.90964,1.683 2.28808,1.94537 1.11108,0.77027 3.7036,4.88996 4.50178,7.15361 0.56649,1.60662 0.78332,3.09337 0.93504,6.41163 0.19756,4.32 0.19756,4.32 -1.31748,7.2 -0.83328,1.584 -1.96783,3.28391 -2.52123,3.77758 -0.55341,0.49367 -1.45312,1.30533 -1.99937,1.80369 -0.54625,0.49836 -1.32058,1.08132 -1.72072,1.29547 -0.88328,0.47271 -5.12149,0.69513 -6.8861,0.36137 z m -0.0273,-9.68391 c 0.44156,-0.20119 1.20434,-0.95719 1.69506,-1.68 0.84118,-1.23903 0.89089,-1.50638 0.86915,-4.6742 -0.0187,-2.71911 -0.19102,-3.90243 -0.90365,-6.20381 -0.76199,-2.46079 -1.09108,-3.04883 -2.44342,-4.36606 -1.11167,-1.08279 -2.13305,-1.71481 -3.53807,-2.18929 -1.08638,-0.36687 -2.09345,-0.59398 -2.23795,-0.50467 -0.1445,0.0893 -3.18573,0.23243 -6.75829,0.31806 -8.56993,0.20541 -9.55111,0.47564 -12.49556,3.44144 -1.51495,1.52594 -2.16,2.41549 -2.16,2.97876 0,0.77886 1.62116,3.19591 2.52718,3.76788 0.24595,0.15526 0.89395,0.71285 1.44,1.23908 1.67914,1.61817 2.13236,1.77018 5.95282,1.99657 4.91257,0.2911 7.53069,1.19009 10.51462,3.61042 1.56989,1.27337 4.56587,2.61257 5.87032,2.62403 0.47572,0.004 1.22622,-0.15702 1.66779,-0.35821 z m -68.54812,-23.14315 c -0.58045,-0.26019 -1.80445,-0.56849 -2.72,-0.68511 -1.15982,-0.14772 -2.73205,-0.79476 -5.18462,-2.1337 -4.30251,-2.34887 -7.09507,-5.03587 -8.55565,-8.23224 -0.88177,-1.92967 -0.93755,-2.27207 -0.77174,-4.73764 0.0983,-1.46171 0.34362,-3.18971 0.54516,-3.84 0.44114,-1.42341 2.78971,-6.10958 3.39912,-6.78236 0.23913,-0.264 1.22034,-1.45926 2.18047,-2.65613 3.03661,-3.78538 5.27953,-5.76363 7.16107,-6.31603 6.05948,-1.779 9.39034,-2.64176 10.60157,-2.74602 0.792,-0.0682 2.56019,-0.28572 3.9293,-0.48345 3.36064,-0.48533 9.19862,-0.11145 11.07303,0.70916 2.21248,0.96862 6.10392,3.75313 8.16985,5.84593 1.51706,1.53678 2.11143,2.46095 2.99811,4.66166 1.10592,2.74488 1.10592,2.74488 1.08368,7.96816 -0.0196,4.60363 -0.0966,5.34389 -0.64912,6.24 -0.34478,0.5592 -1.00652,1.76455 -1.47052,2.67857 -0.464,0.91401 -1.24699,2.09364 -1.73999,2.62139 -0.49299,0.52775 -1.12997,1.3161 -1.4155,1.75188 -1.26778,1.93487 -5.56717,4.58359 -9.49884,5.85194 -2.46177,0.79416 -17.49939,1.01733 -19.13538,0.28399 z m 8.57538,-7.98922 c 2.7613,-0.14673 4.32092,-0.72055 6.00713,-2.21017 0.65608,-0.57959 1.67486,-1.38808 2.26395,-1.79665 0.7469,-0.51801 1.40335,-1.48019 2.16884,-3.17893 0.60376,-1.33984 1.29048,-2.79608 1.52603,-3.23608 1.04453,-1.95107 0.79446,-8.77779 -0.40713,-11.11409 -1.08209,-2.10398 -2.36147,-3.0554 -4.43746,-3.29999 -3.14753,-0.37083 -6.49,-0.0795 -10.48136,0.91346 -3.55596,0.88467 -8.8,2.9766 -8.8,3.51046 0,0.12674 -0.59824,0.87839 -1.32943,1.67031 -2.39597,2.59497 -4.96166,6.29145 -5.46982,7.88055 -0.98479,3.07961 -1.00124,4.0628 -0.0978,5.84565 0.45531,0.89851 0.93341,1.63434 1.06244,1.63518 0.12904,9.6e-4 0.80409,0.52451 1.50012,1.1637 2.74534,2.52116 5.01727,2.82647 16.49449,2.2166 z m 47.68,-20.98183 c -0.264,-0.17061 -1.128,-0.31584 -1.92,-0.32273 -1.66736,-0.0145 -2.98358,-0.31711 -5.43548,-1.24962 -0.96552,-0.3672 -1.99154,-0.66765 -2.28005,-0.66765 -1.04166,0 -5.27806,-2.24511 -6.76928,-3.58744 -2.11471,-1.90354 -3.099,-4.68461 -3.10844,-8.78272 -0.01,-4.20054 0.8577,-6.00543 4.84018,-10.07178 2.34923,-2.3987 3.62441,-3.40961 5.75203,-4.56 2.34458,-1.26769 2.99477,-1.47805 4.56838,-1.47805 1.00911,0 2.14927,0.17573 2.5337,0.39052 0.39815,0.22246 2.62705,0.47578 5.17896,0.58862 5.071,0.22422 7.94035,0.99885 9.57729,2.58557 0.51551,0.49969 1.20359,0.99304 1.52906,1.09634 0.72275,0.2294 3.43791,5.48595 3.87342,7.49895 0.39938,1.84603 0.4009,6.14316 0.003,8 -0.36591,1.70678 -1.21434,3.42303 -2.14849,4.3461 -0.37076,0.36636 -1.05346,1.08636 -1.51712,1.6 -1.42491,1.57851 -3.18759,2.85215 -5.73109,4.14104 -1.38012,0.69936 -1.97152,0.79228 -5.01526,0.78796 -1.8979,-0.003 -3.66669,-0.14449 -3.93069,-0.31511 z m -2.21249,-8.77236 c 5.31968,-1.61468 9.22493,-5.55 9.24546,-9.31666 0.004,-0.82009 -0.39038,-2.1183 -1.08539,-3.56852 -1.30225,-2.71735 -1.36569,-2.7426 -7.06758,-2.81335 -3.61754,-0.0449 -3.91353,-1.9e-4 -5.10923,0.77163 -1.70588,1.10111 -2.10216,1.44984 -4.65324,4.09488 -1.9468,2.0185 -2.55753,3.21295 -2.55753,5.00196 0,1.54502 0.88368,3.95515 1.69795,4.63092 1.81906,1.50969 6.54658,2.10457 9.52956,1.19914 z m -51.28774,-16.78814 c -0.82513,-0.12349 -1.76113,-0.45956 -2.08,-0.74684 -0.31887,-0.28727 -1.5117,-0.99854 -2.65072,-1.5806 -2.55714,-1.30674 -6.35354,-4.99231 -7.52624,-7.30652 -0.77582,-1.53099 -0.83326,-1.90864 -0.69917,-4.59678 0.24046,-4.82055 0.88325,-7.44612 2.58914,-10.57561 1.9853,-3.64208 4.10762,-6.72723 5.83756,-8.48587 0.76431,-0.77699 1.38966,-1.51214 1.38966,-1.63364 0,-0.39516 3.66691,-2.80516 5.50502,-3.61807 2.99268,-1.3235 6.78309,-0.82458 11.99516,1.57887 0.91311,0.42105 1.79404,0.76556 1.95763,0.76556 0.53601,0 4.67143,2.90268 6.07809,4.26626 2.98099,2.88968 3.9041,5.73697 3.9041,12.042 0,4.88837 -0.50703,7.27193 -2.23756,10.51873 -1.69653,3.18301 -5.59584,6.79966 -9.45785,8.77224 -1.07205,0.54757 -11.96542,0.9953 -14.60482,0.60027 z m 4.54023,-8.0391 c 1.56192,-0.44073 4.03237,-2.66016 4.74163,-4.25985 0.3269,-0.7373 0.83376,-1.53818 1.12637,-1.77972 0.2926,-0.24156 0.532,-0.86302 0.532,-1.38104 0,-0.51802 0.15892,-1.2388 0.35316,-1.60173 0.19423,-0.36293 0.4735,-1.39747 0.62061,-2.29897 0.40749,-2.49729 0.88698,-4.71055 1.30857,-6.04021 0.53425,-1.68496 -0.42121,-4.55929 -1.80234,-5.42205 -1.07748,-0.67308 -3.92179,-0.64985 -7.90403,0.0645 -3.14513,0.56422 -4.18848,1.62864 -8.46766,8.63864 -0.79353,1.29993 -1.36886,3.52573 -1.92575,7.45022 -0.0961,0.67717 0.0128,1.65564 0.24714,2.22148 0.51517,1.24371 2.69165,3.55704 3.97738,4.22747 1.10018,0.57367 5.41671,0.68242 7.19292,0.18122 z M 8.1909239,144.14365 c -2.50985,-1.40786 -4.757099,-4.08559 -6.074103,-7.23762 -1.066605,-2.55274 -0.136364,-7.16418 2.280935,-11.30718 0.898183,-1.53939 1.559515,-1.93977 4.883641,-2.95664 2.8945881,-0.88547 6.0394631,-0.70738 8.3446181,0.47254 2.457472,1.25789 5.346992,6.60563 5.015468,9.28232 -0.362892,2.92994 -0.757656,4.55451 -1.414574,5.82136 -1.647354,3.17687 -2.761411,4.29746 -5.827461,5.86164 -1.644142,0.83878 -5.7618091,0.8751 -7.2085241,0.0636 z m 3.3871681,-6.63318 c 1.050052,-0.543 2.006694,-2.1941 2.571981,-4.43906 0.317505,-1.26092 0.291132,-1.71285 -0.170501,-2.92161 -0.760911,-1.99242 -1.28007,-2.19602 -3.044731,-1.19408 -2.0099631,1.14122 -2.2860581,1.44475 -2.5924161,2.85001 -0.147642,0.67724 -0.360367,1.61005 -0.472723,2.07292 -0.150121,0.61845 0.03619,1.21236 0.702682,2.24 1.34647,2.07607 1.5237641,2.15817 3.0057081,1.39182 z M 192.20533,122.30895 c -4.10483,-1.12286 -5.98428,-2.38357 -7.22883,-4.84901 -2.12362,-4.20687 -2.30856,-6.18382 -0.95259,-10.18288 1.16244,-3.42829 1.62142,-5.01497 1.62142,-5.60518 0,-0.86914 2.79632,-6.841227 3.7692,-8.049861 1.27646,-1.585766 4.31031,-4.631209 5.47421,-5.495116 1.09004,-0.809088 3.67269,-1.882439 5.47659,-2.27608 0.616,-0.13442 1.48,-0.391863 1.92,-0.572093 3.30182,-1.35248 5.51503,-1.762224 8.74309,-1.618659 3.03631,0.13504 3.43883,0.233609 5.6073,1.373107 2.54464,1.337171 3.23505,2.084902 4.9772,5.390457 1.12629,2.137002 1.15241,2.268589 1.15241,5.803645 0,3.61707 0,3.61707 -1.86048,7.25342 -1.77883,3.47677 -4.35163,7.71361 -5.51158,9.07636 -2.06755,2.42904 -7.79231,7.71803 -9.04648,8.35787 -0.3858,0.19682 -1.27248,0.46117 -1.9704,0.58743 -0.69792,0.12626 -1.66277,0.43323 -2.14411,0.68214 -0.97483,0.50411 -8.30638,0.5951 -10.02695,0.12445 z m 6.3359,-10.75752 c 1.98559,-1.01913 4.99407,-3.3564 6.72044,-5.22108 2.95656,-3.19344 5.98366,-9.58117 5.98366,-12.626596 0,-1.314122 -0.15393,-1.684631 -1.088,-2.618695 -1.36172,-1.361728 -2.24694,-1.385724 -4.72198,-0.128 -1.03904,0.528 -2.1436,0.96 -2.45459,0.96 -0.31099,0 -1.56668,0.658304 -2.79043,1.462899 -1.22375,0.804592 -2.61214,1.540823 -3.08531,1.636061 -1.6582,0.333771 -4.62068,4.777361 -5.40085,8.101041 -0.41681,1.7757 -0.9687,3.92729 -1.24094,4.83786 -0.33656,1.12573 0.0349,1.68521 1.99572,3.00568 1.37676,0.92716 1.9461,1.11646 3.358,1.11646 0.94788,0 2.15332,-0.23259 2.72428,-0.52563 z m -170.49589,8.87645 c -2.470768,-0.35042 -7.035879,-3.12502 -8.747523,-5.3166 -0.753534,-0.96481 -1.513572,-1.75422 -1.688973,-1.75422 -0.175401,0 -0.68024,-0.78925 -1.121864,-1.75388 -0.441624,-0.96464 -0.925274,-1.82948 -1.074777,-1.92188 -0.149503,-0.0924 -0.97567,-1.49916 -1.835925,-3.12612 -3.091303,-5.84646 -3.7259011,-10.69362 -2.349307,-17.944373 0.339757,-1.789562 0.781353,-4.189747 0.981324,-5.333747 0.582787,-3.334026 1.218198,-5.220531 2.436759,-7.234631 0.627374,-1.036953 1.476876,-2.544422 1.887782,-3.349932 0.410907,-0.805511 1.137559,-1.813511 1.614784,-2.24 0.477225,-0.42649 1.27452,-1.15544 1.771767,-1.619888 3.406228,-3.181549 4.295609,-3.59705 9.885953,-4.618512 5.093421,-0.930666 8.785053,0.319226 12.855404,4.352505 2.40858,2.386647 8.408154,13.914285 9.223245,17.721629 0.154109,0.719856 0.430022,1.884828 0.613139,2.588828 0.527587,2.028308 0.425603,12.304951 -0.131789,13.280001 -0.251526,0.44 -0.462425,1.20173 -0.468659,1.69275 -0.0062,0.49101 -0.299341,1.45727 -0.651341,2.14725 -0.352,0.68997 -0.64,1.48102 -0.64,1.75789 0,0.70064 -1.438563,3.46976 -2.078425,4.0008 -0.290592,0.24117 -0.795312,0.96178 -1.121597,1.60135 -0.786774,1.54222 -4.268333,4.76617 -6.605481,6.11674 -1.874496,1.08323 -1.874496,1.08323 -6.514496,1.13209 -2.552,0.0269 -5.36,-0.0532 -6.24,-0.17805 z m 3.609126,-8.95703 c 1.075799,-0.54423 2.645975,-1.77642 3.807293,-2.98775 1.08703,-1.13384 2.314755,-2.28322 2.728272,-2.55417 1.160064,-0.7601 3.058822,-4.89266 3.319776,-7.22533 0.09269,-0.8286 0.302579,-2.01054 0.466409,-2.62654 0.519335,-1.952686 0.869348,-9.303012 0.624752,-13.12 -0.233945,-3.650848 -0.248809,-3.703591 -1.876441,-6.657997 -2.248093,-4.08065 -3.084179,-5.044758 -5.075917,-5.853145 -1.423494,-0.577754 -2.160195,-0.664336 -4.705392,-0.553018 -3.010317,0.131661 -3.023221,0.135814 -5.304143,1.70848 -3.721508,2.565926 -4.779732,4.043661 -7.215319,10.07568 -2.175242,5.387241 -2.752312,11.855273 -1.470325,16.48 1.011134,3.64763 3.205319,7.8178 6.451909,12.26219 1.44,1.97128 1.44,1.97128 3.929126,1.97454 2.11435,0.003 2.76479,-0.13619 4.32,-0.92294 z M 246.28533,93.34039 c -0.704,-0.276166 -1.75513,-0.646131 -2.33585,-0.822144 -1.29269,-0.391808 -4.65698,-3.488479 -5.19123,-4.778294 -0.59663,-1.440387 -0.21657,-8.310041 0.58468,-10.568063 0.9946,-2.802954 1.95081,-4.493028 3.46318,-6.12112 0.76957,-0.828461 1.39922,-1.643811 1.39922,-1.811891 0,-0.439101 3.6078,-2.839127 5.89303,-3.920231 1.69866,-0.803609 2.31668,-0.921113 4.8458,-0.921334 2.72682,-2.37e-4 3.00556,0.06402 4.69777,1.083014 3.21812,1.93785 4.36067,3.084791 5.71409,5.736019 1.60758,3.149127 1.99513,4.771303 2.00218,8.380714 0.007,3.372563 -0.37544,4.948156 -1.90588,7.860595 -1.17369,2.233542 -1.75986,2.731856 -6.04699,5.14063 -1.92,1.078774 -1.92,1.078774 -6.88,1.161501 -3.89938,0.06504 -5.23371,-0.02464 -6.24,-0.419396 z m 4.75736,-8.264889 c 1.37933,-0.57632 3.28558,-2.928537 4.09089,-5.047958 0.83703,-2.202877 1.13282,-5.684224 0.59357,-6.98609 -0.47056,-1.136035 -1.74603,-2.244393 -2.58278,-2.244393 -1.35137,0 -5.71811,3.698374 -6.86601,5.81511 -0.64686,1.192816 -1.36385,3.385834 -1.60742,4.916515 -0.19518,1.226496 -0.13178,1.35961 1.25728,2.64 1.21751,1.122262 1.68038,1.348374 2.76024,1.348374 0.71359,0 1.77299,-0.1987 2.35423,-0.441558 z M 77.485339,76.908362 c -0.264,-0.14808 -0.990349,-0.360665 -1.614112,-0.472409 -1.008733,-0.180711 -3.192877,-1.37456 -5.38152,-2.941527 -0.415597,-0.297549 -1.263143,-1.609673 -1.883437,-2.915833 -1.087942,-2.290899 -1.12184,-2.473216 -0.959098,-5.158186 0.109306,-1.803328 0.404471,-3.323654 0.838292,-4.317868 0.850179,-1.94841 3.876752,-5.0088 6.035065,-6.102503 1.510288,-0.765321 2.002512,-0.842976 5.343315,-0.842976 2.421539,0 4.039104,0.151917 4.730637,0.444288 4.735817,2.002244 4.436185,1.77192 5.585404,4.29344 0.882436,1.936167 1.065453,2.721648 1.065453,4.572749 0,2.414742 -0.374109,3.41127 -2.428566,6.469046 -2.696909,4.013978 -4.212621,5.641107 -5.778659,6.20344 -3.091837,1.110211 -4.576925,1.315702 -5.552774,0.768339 z m 0.58207,-7.841344 c 0.916528,-0.473958 2.982371,-3.243798 3.558217,-4.77079 0.47192,-1.251414 0.424676,-3.500649 -0.08827,-4.202141 -0.60674,-0.829769 -2.779114,-0.45047 -5.021978,0.876845 -1.407641,0.833031 -1.926438,1.387344 -2.651622,2.833149 -1.013395,2.020409 -0.965488,3.483741 0.160941,4.915763 0.731814,0.930349 2.604054,1.09113 4.04271,0.347174 z m 39.067581,6.450042 c -2.91961,-1.481418 -3.49014,-2.457543 -3.48787,-5.967322 9.6e-4,-1.513974 0.16081,-3.325488 0.35517,-4.025587 0.83522,-3.00847 7.8707,-7.879103 11.32305,-7.838899 1.99736,0.02326 3.25692,0.69058 4.95432,2.62481 1.37421,1.565952 2.88568,4.87216 2.88568,6.312192 0,0.957491 -1.05276,3.979427 -1.65817,4.759766 -1.27099,1.638237 -3.00661,3.078771 -4.89597,4.063577 -1.93232,1.007194 -2.3807,1.111463 -4.77946,1.111463 -2.3527,0 -2.87506,-0.115667 -4.69675,-1.04 z m 7.08624,-5.528218 c 0.51926,-0.268518 0.94411,-0.714918 0.94411,-0.992 0,-0.836329 -2.07925,-2.679782 -3.02255,-2.679782 -1.83352,0 -3.28584,2.982406 -1.85745,3.814368 0.83368,0.485574 2.86335,0.412045 3.93589,-0.142586 z m 92.4641,-1.73903 c -0.44,-0.147926 -1.448,-0.284717 -2.24,-0.303981 -1.49824,-0.03644 -4.48272,-1.237177 -5.6,-2.253033 -0.352,-0.320048 -1.17178,-0.850515 -1.82175,-1.178819 -0.7718,-0.38985 -1.62753,-1.287383 -2.46682,-2.587328 -2.63442,-4.080362 -3.22059,-5.774304 -3.22677,-9.324797 -0.005,-2.876915 -0.21512,-2.268902 3.04996,-8.825993 1.34577,-2.702631 3.9148,-5.595606 6.33885,-7.138157 0.72959,-0.464275 1.68653,-1.164941 2.12653,-1.557033 0.73978,-0.659231 2.7084,-1.702281 8.97915,-4.757512 2.30517,-1.123123 2.53885,-1.17158 4.96,-1.028505 1.39747,0.08258 3.40096,0.317441 4.45221,0.521908 2.48657,0.483635 6.70837,2.729574 7.52996,4.005828 0.34509,0.536069 1.27212,1.823218 2.06006,2.860332 2.5207,3.317811 3.54197,8.197945 2.43848,11.652175 -0.94574,2.960413 -2.14544,5.070973 -4.12068,7.249223 -1.00055,1.103382 -2.53918,2.853676 -3.41918,3.889545 -4.53428,5.337405 -8.35004,7.875405 -12.76021,8.487273 -3.572,0.495581 -5.41304,0.580269 -6.27979,0.288874 z m 4.16,-8.131917 c 5.08756,-0.904262 7.24506,-2.614851 10.08243,-7.993948 1.43757,-2.725366 1.43757,-2.725366 1.43757,-6.730512 0,-6.967897 -1.05599,-9.209849 -4.53591,-9.630089 -1.89913,-0.229344 -5.70898,0.45024 -7.39653,1.31936 -1.14435,0.58936 -2.68288,1.682381 -4.4249,3.14358 -0.63654,0.533927 -1.77148,1.474775 -2.52209,2.090775 -1.69881,1.394141 -3.93446,4.285942 -4.42812,5.72775 -0.62006,1.810918 -0.43044,3.855693 0.57641,6.216083 1.18444,2.776717 2.2793,4.205181 4.11575,5.369821 1.68788,1.070422 3.2215,1.175721 7.09539,0.48718 z m -52.92335,-0.599456 c -1.03584,-0.561862 -2.54784,-1.615897 -3.36,-2.342303 -0.81215,-0.726407 -1.79312,-1.487904 -2.17993,-1.692218 -0.3868,-0.204314 -1.51521,-1.818096 -2.50756,-3.586182 -1.72963,-3.081703 -1.79766,-3.290128 -1.64409,-5.03769 0.51207,-5.8272 1.25333,-7.597561 4.50112,-10.750137 2.74381,-2.663374 4.16927,-3.37737 6.75381,-3.382903 1.65427,-0.0035 2.44434,0.237673 5.70847,1.742827 4.97376,2.293506 6.1244,3.477452 8.4821,8.727666 0.73119,1.62824 1.32734,3.42824 1.32478,4 -0.005,1.143472 -0.64562,3.17855 -1.57028,4.989318 -0.61712,1.208512 -4.2075,4.850243 -4.78185,4.850243 -0.17836,0 -0.98457,0.571466 -1.79158,1.269927 -1.551,1.342384 -3.95998,2.256105 -5.90972,2.241545 -0.66385,-0.005 -1.93038,-0.436205 -3.02527,-1.030093 z m 5.14842,-6.183891 c 0.31621,-0.45238 0.90241,-1.197155 1.30266,-1.655059 0.72054,-0.824336 0.8221,-1.105974 1.18362,-3.282428 0.79768,-4.802336 0.45518,-6.146512 -1.95579,-7.675501 -1.94216,-1.231683 -3.41373,-1.253882 -5.60188,-0.0845 -2.34106,1.251101 -2.82083,1.806803 -3.04511,3.527094 -0.10848,0.832099 -0.32805,1.768067 -0.48792,2.079933 -0.429,0.836841 1.38031,4.010707 2.94972,5.174358 0.6983,0.51776 1.26963,1.059878 1.26963,1.204704 0,0.46433 2.05049,1.531478 2.94507,1.532714 0.56746,6.4e-4 1.06285,-0.28176 1.44,-0.821316 z m -44.10976,-2.208854 c -0.10679,-0.106784 -0.89641,-0.450963 -1.75473,-0.764845 -1.99598,-0.729913 -4.2335,-2.304166 -6.39249,-4.497577 -2.56789,-2.608822 -4.61196,-7.417539 -5.97487,-14.056011 -0.27015,-1.315864 -0.25726,-1.94255 0.056,-2.72 0.22386,-0.55561 0.52699,-1.4422 0.67362,-1.9702 1.11627,-4.019426 3.79347,-8.646283 7.07819,-12.23285 0.68145,-0.744067 1.239,-1.486844 1.239,-1.650616 0,-0.163771 0.64774,-0.706989 1.43942,-1.20715 0.79169,-0.50016 1.43969,-1.015776 1.44,-1.145812 3.2e-4,-0.130036 1.18858,-0.850035 2.64058,-1.6000002 2.64,-1.363571 2.64,-1.363571 7.44,-1.363571 4.8,0 4.8,0 7.28198,1.44 2.48198,1.4400002 2.48198,1.4400002 4.81554,5.7600002 3.5749,6.617999 3.58336,6.643336 3.57672,10.711567 -0.007,4.066265 -0.16519,4.615832 -3.03363,10.515696 -1.13177,2.32783 -2.44252,4.513539 -3.13448,5.226816 -0.65411,0.674256 -1.53795,1.72992 -1.96408,2.34592 -0.79111,1.143577 -1.83088,2.355337 -3.17726,3.702822 -1.05559,1.056448 -4.11743,2.74433 -5.64479,3.111763 -1.56693,0.376954 -6.3372,0.661555 -6.6047,0.394048 z m 2.9247,-8.922534 c 3.91283,-1.609763 7.06146,-7.847808 7.031,-13.929776 -0.007,-1.401661 -0.23552,-2.218157 -1.04,-3.716323 -0.89428,-1.665378 -1.29652,-2.060413 -3.03319,-2.978801 -1.4855,-0.785562 -2.57212,-1.106583 -4.21066,-1.243952 -2.10077,-0.176121 -2.30742,-0.129388 -4.23781,0.95836 -2.01145,1.133425 -3.78934,3.238695 -3.78934,4.487091 0,0.283574 -0.20216,0.988474 -0.44925,1.566446 -1.06072,2.481204 -1.26912,3.714767 -0.86683,5.130856 0.80225,2.82392 1.75062,5.563926 2.35362,6.8 0.68255,1.399139 2.45105,3.222995 3.35257,3.457513 1.3453,0.349959 3.25093,0.142864 4.88989,-0.531414 z M 21.977645,48.834405 c -2.345742,-0.860768 -6.370171,-3.463293 -8.222501,-5.317344 -1.011059,-1.012 -1.982676,-1.84 -2.159148,-1.84 -0.176472,0 -0.949348,-0.612 -1.7175021,-1.36 -0.768155,-0.748 -1.890859,-1.813181 -2.494899,-2.367066 -1.856361,-1.70223 -2.16191,-2.141475 -3.491337,-5.019015 -1.15045,-2.490145 -1.286917,-3.047173 -1.286917,-5.252934 0,-1.833954 0.207784,-3.044224 0.809353,-4.714197 1.754422,-4.870326 3.652533,-7.644937 8.4240271,-12.314034 2.231847,-2.1839502 3.190545,-2.8798102 4.959776,-3.5999992 2.857884,-1.163341 4.214603,-1.140488 6.695969,0.112785 1.094981,0.553047 2.96961,1.404068 4.165842,1.891159 2.533749,1.0317112 7.44019,4.2347402 7.952139,5.1913242 0.193965,0.362426 0.946717,1.398885 1.672778,2.303243 0.726064,0.904357 1.703116,2.428286 2.171228,3.38651 1.104708,2.261334 2.508887,6.732952 2.508887,7.989564 0,0.541443 0.23054,1.430257 0.51231,1.975141 0.343363,0.663991 0.568771,2.216133 0.683517,4.706666 0.171206,3.715967 0.171206,3.715967 -1.361597,6.59341 -0.84304,1.582595 -1.978077,3.352876 -2.522297,3.933958 -1.188512,1.269014 -4.351357,3.089145 -6.300301,3.625654 -2.154685,0.593146 -9.451849,0.643018 -10.999327,0.07518 z m 7.496256,-6.757344 c 1.473007,-1.481319 2.494869,-4.127034 2.924901,-7.5729 0.177575,-1.422905 0.5317,-4.1711 0.786941,-6.1071 0.758285,-5.751515 0.636928,-6.539104 -1.380614,-8.96 -1.770757,-2.124774 -2.012835,-2.334454 -4.268952,-3.69762 -3.736404,-2.257569 -7.778355,-2.805786 -10.621547,-1.440618 -1.413634,0.67876 -5.075764,5.043905 -6.055729,7.218238 -0.356951,0.792 -0.9920281,2.19919 -1.4112811,3.12709 -0.419254,0.927899 -0.762279,2.17596 -0.762279,2.77347 0,1.190114 0.93373,3.617859 1.7720961,4.607536 1.747349,2.062718 3.262367,3.44169 6.627903,6.032739 1.012,0.779114 1.84,1.529267 1.84,1.667011 0,0.137741 0.684,0.643584 1.52,1.124093 0.836,0.480509 2.096,1.221024 2.8,1.645594 0.961896,0.580096 1.746632,0.773248 3.157647,0.777203 1.7473,0.0049 1.960484,-0.07804 3.070914,-1.194736 z m 258.516769,3.792841 c -2.37137,-1.048902 -5.61823,-3.512432 -6.32343,-4.797849 -0.58992,-1.075274 -0.98457,-3.106013 -1.18839,-6.114992 -0.14577,-2.15202 -0.0759,-2.561514 0.67591,-3.963169 1.36567,-2.546029 2.96208,-4.273534 4.43511,-4.799335 2.51383,-0.897312 5.45193,-1.291057 6.61315,-0.886252 0.5818,0.202816 1.57633,0.371919 2.21006,0.375784 1.46698,0.0089 3.51488,0.937291 5.30683,2.405654 1.06187,0.870118 1.64227,1.723623 2.38445,3.50644 1.17924,2.832646 1.19153,3.115206 0.22353,5.138049 -0.41658,0.870557 -0.95023,2.080221 -1.18587,2.688147 -0.23565,0.607927 -0.74998,1.471927 -1.14295,1.92 -0.39298,0.448074 -1.16666,1.350595 -1.7193,2.0056 -1.4879,1.76352 -4.02591,3.097648 -6.27471,3.298358 -1.60561,0.143306 -2.19102,0.03008 -4.01439,-0.776435 z m 4.21554,-6.753404 c 1.56238,-1.002579 2.05779,-1.747469 2.40967,-3.623114 0.31239,-1.665201 -0.0433,-2.456323 -1.10436,-2.456323 -0.48988,0 -1.33987,-0.156587 -1.88888,-0.347971 -1.07569,-0.37499 -2.92911,0.02883 -3.50811,0.76434 -0.1661,0.210997 -0.3929,1.40912 -0.50401,2.662495 -0.1774,2.001197 -0.12139,2.381354 0.45963,3.12 0.89424,1.136848 2.23883,1.098022 4.13606,-0.119427 z"
       id="path74" />
    <path
       style="fill:#ffe680;stroke-width:0.0859601"
       d="m 25.07305,263.2684 c -1.181264,-0.0636 -2.343639,0.14032 -3.479202,0.4481 -1.646986,0.41207 -3.367752,0.58508 -4.957314,1.19707 -0.725874,0.39433 -0.427025,1.35964 -0.518177,2.02437 -0.08886,6.81816 0.364659,13.63953 1.328975,20.38934 0.20869,1.21101 0.251701,2.47523 0.651028,3.64077 0.467408,0.42432 1.199667,0.35716 1.781154,0.5349 2.651776,0.43164 5.343632,1.06443 7.590346,2.62967 2.70221,1.87433 5.398723,3.99151 6.803868,7.05242 0.654403,1.29575 0.97325,2.76164 1.784254,3.97348 0.319408,0.5219 0.971176,0.38691 1.423882,0.1506 1.35644,-0.31376 2.792288,-0.19545 4.113371,-0.69606 1.821091,-0.50569 3.705923,-0.74323 5.522054,-1.27566 5.318888,-1.23081 10.804337,-1.60675 16.162456,-2.70598 0.704542,-0.21744 1.726076,-0.28417 2.013074,-1.09036 0.03272,-1.51239 -0.671332,-2.93799 -0.95193,-4.39312 -0.63946,-2.80378 -1.03643,-5.70436 -2.101607,-8.40405 -0.558828,-1.6304 -0.989854,-3.34027 -2.019622,-4.75767 -1.820399,-2.70883 -4.217154,-4.96441 -6.61809,-7.14947 -2.157926,-1.83802 -4.626477,-3.27557 -6.730745,-5.17976 -1.997195,-1.51 -4.0941,-2.93574 -6.388919,-3.95383 -3.121228,-1.1732 -6.51816,-1.1566 -9.722637,-1.92166 -1.835103,-0.58883 -3.785104,-0.49873 -5.686219,-0.5131 z"
       id="path152" />
    <path
       style="fill:url(#linearGradient162);stroke-width:0.486264;fill-opacity:1"
       d="m 125.86247,90.955115 c -5.66434,0.174138 -11.59896,1.435137 -15.7238,5.618627 -3.31142,3.165284 -7.32772,6.311238 -8.79359,10.801328 1.01839,8.79223 10.7009,14.23989 10.57913,23.35537 0.69279,3.99391 -0.5464,7.88548 -2.86349,11.13613 -2.73349,4.34761 -6.72021,8.28065 -12.035031,9.12694 -5.942811,1.30671 -13.202157,1.3686 -17.860701,-3.09139 -3.514351,-4.2086 -3.45492,-9.9198 -4.35833,-15.02764 -2.121317,-4.01312 -6.086816,-8.06262 -10.884901,-8.15727 -6.856019,0.86027 -11.535214,6.58928 -16.150888,11.15414 -1.779174,2.05393 -0.719102,5.35465 -0.498902,7.91842 1.226958,5.86273 4.291058,12.22658 10.456573,14.11496 7.574858,3.36781 17.082626,5.5051 21.371152,13.36142 3.339135,6.69304 4.164432,15.60369 -1.142764,21.55745 -6.251739,8.3852 -12.329198,16.8621 -19.900135,24.11241 -7.717885,7.31504 -13.543753,16.24934 -20.44713,24.26553 -4.775392,5.38567 -10.141721,10.34554 -14.781954,15.77565 3.899988,0.9243 8.38204,0.85884 12.438649,1.8133 2.916973,0.26536 6.058148,1.70566 8.918973,1.08244 9.59495,-12.80198 20.315958,-24.85252 30.967571,-36.82357 6.692012,-6.86414 12.679851,-14.36217 18.836487,-21.68195 2.41448,-2.38681 5.873309,2.17049 3.79229,4.40107 -3.968925,5.95607 -9.132659,11.05711 -13.785285,16.47485 -10.500694,11.06897 -20.399334,22.69376 -29.955698,34.58038 -1.354157,2.35489 -4.339473,4.37322 -4.326013,7.2575 3.487378,3.79307 8.131119,6.4484 11.63576,10.28963 1.965124,3.07208 3.496809,-1.16804 5.074844,-2.46581 8.522499,-9.03189 16.970634,-18.16403 25.209389,-27.46018 7.959969,-8.07669 15.371314,-16.74378 23.620214,-24.47975 1.56898,-1.64654 4.31007,-2.57937 6.04221,-0.62302 1.53294,1.08886 2.70556,3.25401 1.03141,4.83604 -10.70841,15.44308 -25.424265,27.50107 -36.927567,42.33441 -5.390688,6.77784 -11.882855,12.79439 -16.339225,20.25498 -0.520432,4.22056 1.711411,8.3053 1.795948,12.54314 0.665651,1.83112 2.604477,-0.53766 3.446584,-1.0979 11.318774,-10.33249 20.680701,-22.54222 31.13656,-33.70823 9.33664,-10.81385 19.51006,-20.91822 28.35585,-32.14435 3.13942,-4.23747 6.84843,-9.75177 12.8346,-9.31318 6.56493,-0.34565 12.9879,2.18355 17.88256,6.53637 3.88269,2.76876 6.99726,6.90616 11.51361,8.65273 4.24197,1.1276 9.8328,-0.14739 11.08719,-4.95191 1.52585,-3.3694 -0.0424,-8.82133 -4.4381,-8.53242 -5.38086,-0.33027 -11.40954,1.30912 -16.08375,-2.16824 -5.03682,-2.45339 -8.45333,-7.64749 -8.4012,-13.29325 -0.62048,-5.70291 1.32332,-12.01908 5.87111,-15.67649 7.87042,-3.80958 17.38102,-1.49731 25.01219,-5.87031 4.26946,-3.12572 7.10116,-8.31277 7.71375,-13.53181 -0.14659,-4.73703 -6.08049,-6.75683 -10.04249,-5.56829 -5.47597,0.45676 -10.26044,3.45429 -13.87752,7.46396 -3.95532,3.57538 -7.67545,8.33804 -13.09588,9.63885 -4.51658,-0.24434 -8.93295,-3.53493 -10.57719,-7.72228 -1.25995,-4.65215 0.23316,-9.57934 3.50262,-13.07405 3.17086,-4.87722 8.17092,-8.34721 10.95043,-13.46533 1.12092,-3.55939 1.26713,-8.04056 -0.99437,-11.18027 -2.77809,-2.71977 -6.63158,0.0187 -8.52292,2.42942 -6.29053,5.56506 -6.90099,14.43923 -11.07617,21.32671 -2.26641,4.08748 -5.38798,8.98777 -10.40301,9.87491 -4.8335,0.48319 -10.39705,0.49088 -13.96964,-3.37346 -2.69981,-3.08808 -4.90486,-6.89673 -5.74399,-10.92099 0.11632,-11.54277 8.09847,-20.87571 14.95951,-29.38683 3.26929,-3.69497 7.19249,-6.97772 9.03647,-11.74331 3.344,-5.85282 3.5487,-13.3701 -0.14816,-19.105801 -2.47353,-3.057429 -5.08116,-6.375306 -8.54475,-8.303525 -0.77258,-0.218089 -1.58728,-0.150961 -2.37909,-0.146259 z"
       id="path154" />
    <path
       style="fill:#ace8fc;fill-opacity:1;stroke-width:0.486264"
       d="m 31.810295,69.5728 c -6.844238,-0.02211 -11.45359,6.102959 -13.43304,12.034081 -3.149253,7.590789 -3.025471,16.674869 1.625475,23.650369 1.934144,2.88897 3.539996,7.84265 7.854771,7.36415 5.404397,-0.64963 9.428553,-5.2416 12.331349,-9.48215 2.842773,-7.408454 2.948646,-15.681409 2.140701,-23.487872 C 40.685434,75.148524 37.448031,69.177433 31.810295,69.5728 Z"
       id="path164" />
    <path
       style="fill:#ace8fc;fill-opacity:1;stroke-width:0.486264"
       d="m 12.101411,128.42973 c -4.3438488,0.56111 -5.8614999,7.16682 -2.053325,9.38717 2.895956,0.2448 4.226074,-3.59546 4.349783,-5.95674 0.01897,-1.36823 -0.604926,-3.45961 -2.296458,-3.43043 z"
       id="path166" />
    <path
       style="fill:#ace8fc;fill-opacity:1;stroke-width:0.486264"
       d="m 19.36023,13.62396 c -3.699986,0.03131 -5.685443,3.981469 -7.732736,6.515176 -2.1387804,3.286163 -4.4372372,7.737796 -1.6297437,11.377815 4.0038737,4.523911 8.7200787,8.707837 14.1472407,11.437649 3.633769,2.17625 7.23172,-1.781691 7.684922,-5.238108 1.009016,-5.335929 2.297936,-10.915968 1.411631,-16.334154 -2.705795,-4.82563 -8.311669,-8.073647 -13.881314,-7.758378 z"
       id="path168" />
    <path
       style="fill:#ace8fc;fill-opacity:1;stroke-width:0.486264"
       d="m 80.038746,59.517014 c -3.824608,0.477322 -8.316104,4.580581 -6.480037,8.64448 1.269088,2.296826 4.223348,1.810665 5.653768,-0.0057 1.895281,-2.059411 3.998194,-5.922481 1.806394,-8.413695 -0.291662,-0.179474 -0.641925,-0.238779 -0.980125,-0.225087 z"
       id="path170" />
    <path
       style="fill:#ace8fc;fill-opacity:1;stroke-width:0.486264"
       d="m 129.71554,20.078353 c -4.41843,0.382961 -7.48485,4.401413 -8.23633,8.537519 -1.65024,3.329296 0.78173,6.756042 1.80378,9.961403 1.08984,3.147407 4.62287,5.725839 7.91224,4.029722 5.60095,-2.537129 8.11949,-9.436496 7.69759,-15.269826 -0.45222,-4.599833 -4.93851,-7.104146 -9.17728,-7.258818 z"
       id="path172" />
    <path
       style="fill:#ace8fc;fill-opacity:1;stroke-width:0.486264"
       d="m 121.8109,66.190796 c -1.69205,0.331028 -3.59504,3.303169 -1.19856,4.161735 1.58749,1.283551 5.65671,-0.664838 3.83787,-2.769425 -0.70102,-0.682703 -1.61366,-1.393977 -2.63931,-1.39231 z"
       id="path174" />
    <path
       style="fill:#ace8fc;fill-opacity:1;stroke-width:0.486264"
       d="m 170.68707,39.620083 c -3.28452,0.440871 -6.24903,2.894247 -6.31003,6.39646 0.0545,3.426388 3.26111,5.94835 5.79338,7.805865 2.67798,1.264301 4.69145,-2.320496 5.3546,-4.444756 0.73504,-3.144587 1.10205,-7.85372 -2.68775,-9.175382 -0.6825,-0.283983 -1.39139,-0.620069 -2.1502,-0.582187 z"
       id="path176" />
    <path
       style="fill:#ace8fc;fill-opacity:1;stroke-width:0.486264"
       d="m 226.52954,35.592261 c -6.49221,0.04984 -11.53424,4.939918 -15.68011,9.387172 -2.96604,3.036838 -2.59817,7.717865 -0.37989,11.056805 1.48582,3.145202 4.8421,5.345554 8.38425,4.418164 5.20492,0.01252 9.93009,-3.231944 12.01034,-7.96542 2.31506,-4.184244 1.90709,-9.413423 0.74839,-13.886064 -0.69532,-2.139124 -2.94331,-3.202871 -5.08298,-3.010657 z"
       id="path178" />
    <path
       style="fill:#ace8fc;fill-opacity:1;stroke-width:0.486264"
       d="m 208.18448,89.968341 c -4.57034,1.192345 -8.89431,3.485193 -12.78532,6.098243 -2.81329,3.623083 -4.93139,8.295116 -4.68789,12.953426 1.70373,3.61633 7.00134,3.97976 9.8258,1.41927 5.52208,-3.83778 9.74276,-9.96492 10.83472,-16.625466 -0.0222,-1.691701 -1.44999,-3.683188 -3.18731,-3.845473 z"
       id="path180" />
    <path
       style="fill:#ace8fc;fill-opacity:1;stroke-width:0.486264"
       d="m 252.96919,70.740023 c -4.64985,1.863663 -8.5504,6.731733 -8.35006,11.878325 1.32665,3.529115 6.68297,3.914076 8.70621,0.746491 2.24948,-3.105383 4.0388,-7.953157 1.77316,-11.488934 -0.54099,-0.572007 -1.30209,-1.172106 -2.12931,-1.135882 z"
       id="path182" />
    <path
       style="fill:#ace8fc;fill-opacity:1;stroke-width:0.486264"
       d="m 249.25858,116.83727 c -3.97444,-0.0804 -8.25692,1.20087 -10.23091,4.95305 -2.59855,3.92322 -5.32089,8.63695 -4.74545,13.48604 1.62122,3.10146 4.6172,6.312 8.49158,5.41158 3.56048,0.0773 6.61986,-2.06517 8.2095,-5.17225 2.38956,-4.05654 2.74293,-8.96885 3.52541,-13.53181 0.63358,-2.69282 -1.4012,-5.49151 -4.28235,-5.14281 -0.32247,-0.0167 -0.64521,-0.01 -0.96778,-0.004 z"
       id="path184" />
    <path
       style="fill:#ace8fc;fill-opacity:1;stroke-width:0.486264"
       d="m 250.9719,169.76026 c -5.72723,0.43086 -11.96279,1.45139 -16.51683,5.19694 -3.32504,3.79772 -7.57455,8.25868 -6.99194,13.70751 1.38443,4.11266 6.06247,6.6924 10.30367,6.48384 5.55959,-0.21756 12.19463,0.87986 16.6099,-3.33737 5.25907,-4.6967 6.82145,-13.02803 3.94234,-19.37932 -1.44134,-2.56106 -4.74702,-2.68285 -7.34714,-2.6716 z"
       id="path186" />
    <path
       style="fill:#ace8fc;fill-opacity:1;stroke-width:0.486264"
       d="m 234.60798,237.98156 c -6.42939,0.25839 -12.52079,5.55884 -13.63818,11.86788 -0.18903,6.31657 4.48828,11.67057 9.12694,15.39614 3.50963,0.90891 7.49821,0.11632 10.80893,-1.27834 6.05948,-3.51968 7.51725,-12.10877 4.53213,-18.13138 -1.35382,-4.89376 -5.79969,-7.99338 -10.82982,-7.8543 z"
       id="path188" />
    <path
       style="fill:#ace8fc;fill-opacity:1;stroke-width:0.486264"
       d="m 268.30075,289.87883 c -3.99342,0.0547 -5.44127,4.35868 -5.38571,7.69233 -0.0622,1.50659 -0.81674,4.46479 1.56873,4.35885 3.36005,1.56345 7.42332,3.89056 11.16982,2.20149 1.99163,-2.02333 2.82653,-5.11487 3.25094,-7.84576 -0.42157,-2.7233 -2.27159,-5.15172 -5.16655,-5.44862 -1.76212,-0.52082 -3.57754,-1.07627 -5.43723,-0.95829 z"
       id="path190" />
    <path
       style="fill:#ace8fc;fill-opacity:1;stroke-width:0.486264"
       d="m 298.29241,206.27564 c -4.99103,0.55662 -10.56723,-0.49164 -15.10838,2.06947 -1.42326,1.47906 -4.05383,2.80346 -4.08575,5.06493 1.72658,4.27231 6.25546,7.28545 10.90914,6.86432 5.35706,0.26712 9.38638,3.98124 14.15434,5.95804 3.63415,1.09405 6.26165,-3.26958 5.61103,-6.47814 0.29589,-5.62091 -2.462,-12.42513 -8.61884,-13.40739 -0.94973,-0.10802 -1.90775,-0.0867 -2.86154,-0.0712 z"
       id="path192" />
    <path
       style="fill:#ace8fc;fill-opacity:1;stroke-width:0.486264"
       d="m 292.95775,149.29444 c -3.38641,-0.46883 -6.18452,1.53754 -8.31587,3.93569 -3.93414,2.59657 -4.77219,9.32507 -0.16621,11.63805 6.66842,2.50016 15.54475,-1.42971 17.29751,-8.50392 0.34883,-3.21517 -1.85057,-7.64432 -5.63382,-7.06508 -1.06038,-0.02 -2.12115,-0.0157 -3.18161,-0.005 z"
       id="path194" />
    <path
       style="fill:#ace8fc;fill-opacity:1;stroke-width:0.486264"
       d="m 291.1618,32.587302 c -1.82926,-0.240033 -3.84333,0.742586 -3.53206,2.871996 -0.45365,1.964013 0.30664,5.47685 3.02205,4.575819 2.82835,-0.762755 5.52118,-4.494786 3.18351,-7.051776 -0.82448,-0.383259 -1.78116,-0.393377 -2.6735,-0.396039 z"
       id="path196" />
  </g>
</svg>
